# WaveFront *.obj file (generated by CINEMA 4D)

mtllib ./hex.mtl

v -0 -60 -0.00000252881091
v 0 60 0.00000252881091
v 198.5 -60 -0.00000252881091
v 199.25 -59.79903793334961 -0.00000252034101
v 199.79904174804688 -59.25 -0.00000249720074
v 200 -58.5 -0.0000024655908
v 200 58.5 0.00000246559057
v 199.79904174804688 59.25 0.00000249720074
v 199.25 59.79903793334961 0.00000252034101
v 198.5 60 0.00000252881091
v 99.25 -60.00000762939453 171.90603637695312
v 99.625 -59.79904556274414 172.55555725097656
v 99.89952087402344 -59.25000762939453 173.03103637695312
v 100 -58.50000762939453 173.205078125
v 100 58.49999237060547 173.205078125
v 99.89952087402344 59.24999237060547 173.03105163574219
v 99.625 59.79903030395508 172.55555725097656
v 99.25 59.99999237060547 171.90605163574219
v -99.25 -60.00000762939453 171.90603637695312
v -99.625 -59.79904556274414 172.55555725097656
v -99.89952087402344 -59.25000762939453 173.03103637695312
v -100 -58.50000762939453 173.205078125
v -100 58.49999237060547 173.205078125
v -99.89952087402344 59.24999237060547 173.03105163574219
v -99.625 59.79903030395508 172.55555725097656
v -99.25 59.99999237060547 171.90605163574219
v -198.5 -60 -0.00000252881091
v -199.25 -59.79903793334961 -0.00000252034101
v -199.79904174804688 -59.25 -0.00000249720074
v -200 -58.5 -0.00000246559057
v -200 58.5 0.0000024655908
v -199.79904174804688 59.25 0.00000249720074
v -199.25 59.79903793334961 0.00000252034101
v -198.5 60 0.00000252881091
v -99.25 -59.99999237060547 -171.90605163574219
v -99.625 -59.79903030395508 -172.55555725097656
v -99.89952087402344 -59.24999237060547 -173.03105163574219
v -100 -58.49999237060547 -173.205078125
v -100 58.50000762939453 -173.205078125
v -99.89952087402344 59.25000762939453 -173.03103637695312
v -99.625 59.79904556274414 -172.55555725097656
v -99.25 60.00000762939453 -171.90603637695312
v 99.25 -59.99999237060547 -171.90605163574219
v 99.625 -59.79903030395508 -172.55555725097656
v 99.89952087402344 -59.24999237060547 -173.03105163574219
v 100 -58.49999237060547 -173.205078125
v 100 58.50000762939453 -173.205078125
v 99.89952087402344 59.25000762939453 -173.03103637695312
v 99.625 59.79904556274414 -172.55555725097656
v 99.25 60.00000762939453 -171.90603637695312
# 50 vertices

vn 0.77177840471268 -0.45366379618645 -0.44558647274971
vn 0.86040318012238 -0.11376214772463 -0.49675399065018
vn 0.86040318012238 -0.11376214772463 -0.49675399065018
vn 0.77177840471268 -0.45366379618645 -0.44558647274971
vn 0.258819013834 -0.96592581272125 0.00000006026643
vn 0.49232077598572 -0.87041383981705 -0.00000009667363
vn 0.24616040289402 -0.87041342258453 0.4263631105423
vn 0.12940955162048 -0.9659258723259 0.22414362430573
vn 0.49232077598572 -0.87041383981705 -0.00000009667363
vn 0.77177977561951 -0.45366069674492 0.44558724761009
vn 0.77177977561951 -0.45366069674492 0.44558724761009
vn 0.24616040289402 -0.87041342258453 0.4263631105423
vn 0.77177977561951 -0.45366069674492 0.44558724761009
vn 0.86040359735489 -0.11375802010298 0.49675425887108
vn 0.86040359735489 -0.11375802010298 0.49675425887108
vn 0.77177977561951 -0.45366069674492 0.44558724761009
vn 0.86040359735489 -0.11375802010298 0.49675425887108
vn 0.86040323972702 0.11376136541367 0.49675405025482
vn 0.86040323972702 0.11376136541367 0.49675405025482
vn 0.86040359735489 -0.11375802010298 0.49675425887108
vn 0.86040323972702 0.11376136541367 0.49675405025482
vn 0.77177810668945 0.45366442203522 0.44558629393578
vn 0.77177810668945 0.45366442203522 0.44558629393578
vn 0.86040323972702 0.11376136541367 0.49675405025482
vn 0.77177810668945 0.45366442203522 0.44558629393578
vn 0.49232104420662 0.87041372060776 -0.00000081366994
vn 0.24615983664989 0.8704137802124 0.42636278271675
vn 0.77177810668945 0.45366442203522 0.44558629393578
vn 0.49232104420662 0.87041372060776 -0.00000081366994
vn 0.12980546057224 0.991539478302 -0.00000023424707
vn 0.06490252166986 0.99153953790665 0.11241462081671
vn 0.24615983664989 0.8704137802124 0.42636278271675
vn 0.12980546057224 0.991539478302 -0.00000023424707
vn 0 1 0
vn 0.06490252166986 0.99153953790665 0.11241462081671
vn 0 0 0
vn 0.86040318012238 -0.11376214772463 -0.49675399065018
vn 0.8604034781456 0.11375936865807 -0.49675416946411
vn 0.8604034781456 0.11375936865807 -0.49675416946411
vn 0.86040318012238 -0.11376214772463 -0.49675399065018
vn 0.12940955162048 -0.9659258723259 0.22414362430573
vn 0.24616040289402 -0.87041342258453 0.4263631105423
vn -0.24616059660912 -0.87041330337524 0.42636325955391
vn -0.12940946221352 -0.96592593193054 0.22414356470108
vn 0.24616040289402 -0.87041342258453 0.4263631105423
vn 0 -0.45366290211678 0.89117336273193
vn 0 -0.45366290211678 0.89117336273193
vn -0.24616059660912 -0.87041330337524 0.42636325955391
vn 0 -0.45366290211678 0.89117336273193
vn 0 -0.11376313120127 0.99350792169571
vn 0 -0.11376313120127 0.99350792169571
vn 0 -0.45366290211678 0.89117336273193
vn 0 -0.11376313120127 0.99350792169571
vn 0 0.11376313120127 0.99350792169571
vn 0 0.11376313120127 0.99350792169571
vn 0 -0.11376313120127 0.99350792169571
vn 0 0.11376313120127 0.99350792169571
vn 0 0.45366290211678 0.89117336273193
vn 0 0.45366290211678 0.89117336273193
vn 0 0.11376313120127 0.99350792169571
vn 0 0.45366290211678 0.89117336273193
vn 0.24615983664989 0.8704137802124 0.42636278271675
vn -0.2461613714695 0.87041282653809 0.42636382579803
vn 0 0.45366290211678 0.89117336273193
vn 0.24615983664989 0.8704137802124 0.42636278271675
vn 0.06490252166986 0.99153953790665 0.11241462081671
vn -0.0649029314518 0.991539478302 0.11241486668587
vn -0.2461613714695 0.87041282653809 0.42636382579803
vn 0.06490252166986 0.99153953790665 0.11241462081671
vn 0 1 0
vn -0.0649029314518 0.991539478302 0.11241486668587
vn 0 0 0
vn 0.8604034781456 0.11375936865807 -0.49675416946411
vn 0.77178013324738 0.45365986227989 -0.44558748602867
vn 0.77178013324738 0.45365986227989 -0.44558748602867
vn 0.8604034781456 0.11375936865807 -0.49675416946411
vn -0.12940946221352 -0.96592593193054 0.22414356470108
vn -0.24616059660912 -0.87041330337524 0.42636325955391
vn -0.49232071638107 -0.87041383981705 0.00000009667363
vn -0.258819013834 -0.96592581272125 -0.00000006026643
vn -0.24616059660912 -0.87041330337524 0.42636325955391
vn -0.77177840471268 -0.45366379618645 0.44558647274971
vn -0.77177840471268 -0.45366379618645 0.44558647274971
vn -0.49232071638107 -0.87041383981705 0.00000009667363
vn -0.77177840471268 -0.45366379618645 0.44558647274971
vn -0.86040318012238 -0.11376214772463 0.49675399065018
vn -0.86040318012238 -0.11376214772463 0.49675399065018
vn -0.77177840471268 -0.45366379618645 0.44558647274971
vn -0.86040318012238 -0.11376214772463 0.49675399065018
vn -0.8604034781456 0.11375936865807 0.49675416946411
vn -0.8604034781456 0.11375936865807 0.49675416946411
vn -0.86040318012238 -0.11376214772463 0.49675399065018
vn -0.8604034781456 0.11375936865807 0.49675416946411
vn -0.77178013324738 0.45365986227989 0.44558748602867
vn -0.77178013324738 0.45365986227989 0.44558748602867
vn -0.8604034781456 0.11375936865807 0.49675416946411
vn -0.77178013324738 0.45365986227989 0.44558748602867
vn -0.2461613714695 0.87041282653809 0.42636382579803
vn -0.49232104420662 0.87041372060776 0.00000081366994
vn -0.77178013324738 0.45365986227989 0.44558748602867
vn -0.2461613714695 0.87041282653809 0.42636382579803
vn -0.0649029314518 0.991539478302 0.11241486668587
vn -0.12980546057224 0.991539478302 0.00000023424707
vn -0.49232104420662 0.87041372060776 0.00000081366994
vn -0.0649029314518 0.991539478302 0.11241486668587
vn 0 1 0
vn -0.12980546057224 0.991539478302 0.00000023424707
vn 0 0 0
vn 0.77178013324738 0.45365986227989 -0.44558748602867
vn 0.2461613714695 0.87041282653809 -0.42636382579803
vn 0.49232104420662 0.87041372060776 -0.00000081366994
vn 0.77178013324738 0.45365986227989 -0.44558748602867
vn -0.258819013834 -0.96592581272125 -0.00000006026643
vn -0.49232071638107 -0.87041383981705 0.00000009667363
vn -0.24616040289402 -0.87041342258453 -0.4263631105423
vn -0.12940955162048 -0.9659258723259 -0.22414362430573
vn -0.49232071638107 -0.87041383981705 0.00000009667363
vn -0.77177977561951 -0.45366069674492 -0.44558724761009
vn -0.77177977561951 -0.45366069674492 -0.44558724761009
vn -0.24616040289402 -0.87041342258453 -0.4263631105423
vn -0.77177977561951 -0.45366069674492 -0.44558724761009
vn -0.86040359735489 -0.11375802010298 -0.49675425887108
vn -0.86040359735489 -0.11375802010298 -0.49675425887108
vn -0.77177977561951 -0.45366069674492 -0.44558724761009
vn -0.86040359735489 -0.11375802010298 -0.49675425887108
vn -0.86040323972702 0.11376136541367 -0.49675405025482
vn -0.86040323972702 0.11376136541367 -0.49675405025482
vn -0.86040359735489 -0.11375802010298 -0.49675425887108
vn -0.86040323972702 0.11376136541367 -0.49675405025482
vn -0.77177810668945 0.45366442203522 -0.44558629393578
vn -0.77177810668945 0.45366442203522 -0.44558629393578
vn -0.86040323972702 0.11376136541367 -0.49675405025482
vn -0.77177810668945 0.45366442203522 -0.44558629393578
vn -0.49232104420662 0.87041372060776 0.00000081366994
vn -0.24615983664989 0.8704137802124 -0.42636278271675
vn -0.77177810668945 0.45366442203522 -0.44558629393578
vn -0.49232104420662 0.87041372060776 0.00000081366994
vn -0.12980546057224 0.991539478302 0.00000023424707
vn -0.06490252166986 0.99153953790665 -0.11241462081671
vn -0.24615983664989 0.8704137802124 -0.42636278271675
vn -0.12980546057224 0.991539478302 0.00000023424707
vn 0 1 0
vn -0.06490252166986 0.99153953790665 -0.11241462081671
vn 0 0 0
vn 0.2461613714695 0.87041282653809 -0.42636382579803
vn 0.0649029314518 0.991539478302 -0.11241486668587
vn 0.12980546057224 0.991539478302 -0.00000023424707
vn 0.49232104420662 0.87041372060776 -0.00000081366994
vn -0.12940955162048 -0.9659258723259 -0.22414362430573
vn -0.24616040289402 -0.87041342258453 -0.4263631105423
vn 0.24616059660912 -0.87041330337524 -0.42636325955391
vn 0.12940946221352 -0.96592593193054 -0.22414356470108
vn -0.24616040289402 -0.87041342258453 -0.4263631105423
vn 0 -0.45366290211678 -0.89117336273193
vn 0 -0.45366290211678 -0.89117336273193
vn 0.24616059660912 -0.87041330337524 -0.42636325955391
vn 0 -0.45366290211678 -0.89117336273193
vn 0 -0.11376313120127 -0.99350792169571
vn 0 -0.11376313120127 -0.99350792169571
vn 0 -0.45366290211678 -0.89117336273193
vn 0 -0.11376313120127 -0.99350792169571
vn 0 0.11376313120127 -0.99350792169571
vn 0 0.11376313120127 -0.99350792169571
vn 0 -0.11376313120127 -0.99350792169571
vn 0 0.11376313120127 -0.99350792169571
vn 0 0.45366290211678 -0.89117336273193
vn 0 0.45366290211678 -0.89117336273193
vn 0 0.11376313120127 -0.99350792169571
vn 0 0.45366290211678 -0.89117336273193
vn -0.24615983664989 0.8704137802124 -0.42636278271675
vn 0.2461613714695 0.87041282653809 -0.42636382579803
vn 0 0.45366290211678 -0.89117336273193
vn -0.24615983664989 0.8704137802124 -0.42636278271675
vn -0.06490252166986 0.99153953790665 -0.11241462081671
vn 0.0649029314518 0.991539478302 -0.11241486668587
vn 0.2461613714695 0.87041282653809 -0.42636382579803
vn -0.06490252166986 0.99153953790665 -0.11241462081671
vn 0 1 0
vn 0.0649029314518 0.991539478302 -0.11241486668587
vn 0 0 0
vn 0.0649029314518 0.991539478302 -0.11241486668587
vn 0 1 0
vn 0.12980546057224 0.991539478302 -0.00000023424707
vn 0 0 0
vn 0.12940946221352 -0.96592593193054 -0.22414356470108
vn 0.24616059660912 -0.87041330337524 -0.42636325955391
vn 0.49232077598572 -0.87041383981705 -0.00000009667363
vn 0.258819013834 -0.96592581272125 0.00000006026643
vn 0.24616059660912 -0.87041330337524 -0.42636325955391
vn 0.77177840471268 -0.45366379618645 -0.44558647274971
vn 0.77177840471268 -0.45366379618645 -0.44558647274971
vn 0.49232077598572 -0.87041383981705 -0.00000009667363
# 192 normals

vt 0.04570029303432 0.69664388895035 0
vt 0.05141388997436 0.69201767444611 0
vt 0.40260037779808 0.89593833684921 0
vt 0.40205702185631 0.9038200378418 0
vt 0.40100273489952 0.92000222206116 0
vt 0.40151903033257 0.91183972358704 0
vt 0.76401382684708 0.70144718885422 0
vt 0.76987600326538 0.70524030923843 0
vt 0.40151903033257 0.91183972358704 0
vt 0.40205702185631 0.9038200378418 0
vt 0.75825238227844 0.69775211811066 0
vt 0.76401382684708 0.70144718885422 0
vt 0.40205702185631 0.9038200378418 0
vt 0.40260037779808 0.89593833684921 0
vt 0.7525754570961 0.69419372081757 0
vt 0.75825238227844 0.69775211811066 0
vt 0.40260037779808 0.89593833684921 0
vt 0.39859083294868 0.68955910205841 0
vt 0.56793934106827 0.59113955497742 0
vt 0.7525754570961 0.69419372081757 0
vt 0.39859083294868 0.68955910205841 0
vt 0.3988621532917 0.68591099977493 0
vt 0.56515264511108 0.58947598934174 0
vt 0.56793934106827 0.59113955497742 0
vt 0.3988621532917 0.68591099977493 0
vt 0.39912471175194 0.68232774734497 0
vt 0.56244605779648 0.58782106637955 0
vt 0.56515264511108 0.58947598934174 0
vt 0.39912471175194 0.68232774734497 0
vt 0.39941170811653 0.67880666255951 0
vt 0.55980539321899 0.58618831634521 0
vt 0.56244605779648 0.58782106637955 0
vt 0.39941170811653 0.67880666255951 0
vt 0.39966687560081 0.49222636222839 0
vt 0.55980539321899 0.58618831634521 0
vt 0.61457979679108 0.61003041267395 0
vt 0.05141388997436 0.69201767444611 0
vt 0.22933386266232 0.59127056598663 0
vt 0.39859083294868 0.68955910205841 0
vt 0.40260037779808 0.89593833684921 0
vt 0.76987600326538 0.70524030923843 0
vt 0.76401382684708 0.70144718885422 0
vt 0.76498806476593 0.28067100048065 0
vt 0.77182024717331 0.27610051631927 0
vt 0.76401382684708 0.70144718885422 0
vt 0.75825238227844 0.69775211811066 0
vt 0.75845849514008 0.28547096252441 0
vt 0.76498806476593 0.28067100048065 0
vt 0.75825238227844 0.69775211811066 0
vt 0.7525754570961 0.69419372081757 0
vt 0.7521243095398 0.29034948348999 0
vt 0.75845849514008 0.28547096252441 0
vt 0.7525754570961 0.69419372081757 0
vt 0.56793934106827 0.59113955497742 0
vt 0.57041078805923 0.3939436674118 0
vt 0.7521243095398 0.29034948348999 0
vt 0.56793934106827 0.59113955497742 0
vt 0.56515264511108 0.58947598934174 0
vt 0.56726151704788 0.3959493637085 0
vt 0.57041078805923 0.3939436674118 0
vt 0.56515264511108 0.58947598934174 0
vt 0.56244605779648 0.58782106637955 0
vt 0.56418669223785 0.39793312549591 0
vt 0.56726151704788 0.3959493637085 0
vt 0.56244605779648 0.58782106637955 0
vt 0.55980539321899 0.58618831634521 0
vt 0.5611732006073 0.39989221096039 0
vt 0.56418669223785 0.39793312549591 0
vt 0.55980539321899 0.58618831634521 0
vt 0.39966687560081 0.49222636222839 0
vt 0.5611732006073 0.39989221096039 0
vt 0.61617767810822 0.39239478111267 0
vt 0.22933386266232 0.59127056598663 0
vt 0.23231567442417 0.58931475877762 0
vt 0.3988621532917 0.68591099977493 0
vt 0.39859083294868 0.68955910205841 0
vt 0.77182024717331 0.27610051631927 0
vt 0.76498806476593 0.28067100048065 0
vt 0.40080395340919 0.07212626934052 0
vt 0.4010252058506 0.06400227546692 0
vt 0.76498806476593 0.28067100048065 0
vt 0.75845849514008 0.28547096252441 0
vt 0.40052887797356 0.08012914657593 0
vt 0.40080395340919 0.07212626934052 0
vt 0.75845849514008 0.28547096252441 0
vt 0.7521243095398 0.29034948348999 0
vt 0.40080997347832 0.08800005912781 0
vt 0.40052887797356 0.08012914657593 0
vt 0.7521243095398 0.29034948348999 0
vt 0.57041078805923 0.3939436674118 0
vt 0.40113660693169 0.29439103603363 0
vt 0.40080997347832 0.08800005912781 0
vt 0.57041078805923 0.3939436674118 0
vt 0.56726151704788 0.3959493637085 0
vt 0.40089043974876 0.29813134670258 0
vt 0.40113660693169 0.29439103603363 0
vt 0.56726151704788 0.3959493637085 0
vt 0.56418669223785 0.39793312549591 0
vt 0.40071895718575 0.30181062221527 0
vt 0.40089043974876 0.29813134670258 0
vt 0.56418669223785 0.39793312549591 0
vt 0.5611732006073 0.39989221096039 0
vt 0.40056446194649 0.30542719364166 0
vt 0.40071895718575 0.30181062221527 0
vt 0.5611732006073 0.39989221096039 0
vt 0.39966687560081 0.49222636222839 0
vt 0.40056446194649 0.30542719364166 0
vt 0.42855069041252 0.28203845024109 0
vt 0.23231567442417 0.58931475877762 0
vt 0.23521064221859 0.58732855319977 0
vt 0.39912471175194 0.68232774734497 0
vt 0.3988621532917 0.68591099977493 0
vt 0.4010252058506 0.06400227546692 0
vt 0.40080395340919 0.07212626934052 0
vt 0.03996842727065 0.28297436237335 0
vt 0.03377927467227 0.27951443195343 0
vt 0.40080395340919 0.07212626934052 0
vt 0.40052887797356 0.08012914657593 0
vt 0.04600266739726 0.28642022609711 0
vt 0.03996842727065 0.28297436237335 0
vt 0.40052887797356 0.08012914657593 0
vt 0.40080997347832 0.08800005912781 0
vt 0.0521543584764 0.28940618038177 0
vt 0.04600266739726 0.28642022609711 0
vt 0.40080997347832 0.08800005912781 0
vt 0.40113660693169 0.29439103603363 0
vt 0.23042444884777 0.39320242404938 0
vt 0.0521543584764 0.28940618038177 0
vt 0.40113660693169 0.29439103603363 0
vt 0.40089043974876 0.29813134670258 0
vt 0.23324765264988 0.39490520954132 0
vt 0.23042444884777 0.39320242404938 0
vt 0.40089043974876 0.29813134670258 0
vt 0.40071895718575 0.30181062221527 0
vt 0.23606084287167 0.39650440216064 0
vt 0.23324765264988 0.39490520954132 0
vt 0.40071895718575 0.30181062221527 0
vt 0.40056446194649 0.30542719364166 0
vt 0.23883117735386 0.39806592464447 0
vt 0.23606084287167 0.39650440216064 0
vt 0.40056446194649 0.30542719364166 0
vt 0.39966687560081 0.49222636222839 0
vt 0.23883117735386 0.39806592464447 0
vt 0.23960991203785 0.39026129245758 0
vt 0.23521064221859 0.58732855319977 0
vt 0.23805312812328 0.58536386489868 0
vt 0.39941170811653 0.67880666255951 0
vt 0.39912471175194 0.68232774734497 0
vt 0.03377927467227 0.27951443195343 0
vt 0.03996842727065 0.28297436237335 0
vt 0.03982247039676 0.70123565196991 0
vt 0.03372509405017 0.70571786165237 0
vt 0.03996842727065 0.28297436237335 0
vt 0.04600266739726 0.28642022609711 0
vt 0.04570029303432 0.69664388895035 0
vt 0.03982247039676 0.70123565196991 0
vt 0.04600266739726 0.28642022609711 0
vt 0.0521543584764 0.28940618038177 0
vt 0.05141388997436 0.69201767444611 0
vt 0.04570029303432 0.69664388895035 0
vt 0.0521543584764 0.28940618038177 0
vt 0.23042444884777 0.39320242404938 0
vt 0.22933386266232 0.59127056598663 0
vt 0.05141388997436 0.69201767444611 0
vt 0.23042444884777 0.39320242404938 0
vt 0.23324765264988 0.39490520954132 0
vt 0.23231567442417 0.58931475877762 0
vt 0.22933386266232 0.59127056598663 0
vt 0.23324765264988 0.39490520954132 0
vt 0.23606084287167 0.39650440216064 0
vt 0.23521064221859 0.58732855319977 0
vt 0.23231567442417 0.58931475877762 0
vt 0.23606084287167 0.39650440216064 0
vt 0.23883117735386 0.39806592464447 0
vt 0.23805312812328 0.58536386489868 0
vt 0.23521064221859 0.58732855319977 0
vt 0.23883117735386 0.39806592464447 0
vt 0.39966687560081 0.49222636222839 0
vt 0.23805312812328 0.58536386489868 0
vt 0.23870097100735 0.60906726121902 0
vt 0.23805312812328 0.58536386489868 0
vt 0.39966687560081 0.49222636222839 0
vt 0.39941170811653 0.67880666255951 0
vt 0.42720401287079 0.71822935342789 0
vt 0.03372509405017 0.70571786165237 0
vt 0.03982247039676 0.70123565196991 0
vt 0.40151903033257 0.91183972358704 0
vt 0.40100273489952 0.92000222206116 0
vt 0.03982247039676 0.70123565196991 0
vt 0.04570029303432 0.69664388895035 0
vt 0.40205702185631 0.9038200378418 0
vt 0.40151903033257 0.91183972358704 0
# 192 texture coordinates

o Cylinder
usemtl default
f 45/1/1 46/2/2 6/3/2 5/4/1
f 3/5/5 4/6/6 12/7/7 11/8/8
f 4/6/6 5/4/10 13/11/10 12/7/7
f 5/4/10 6/3/14 14/15/14 13/11/10
f 6/3/14 7/18/18 15/19/18 14/15/14
f 7/18/18 8/22/22 16/23/22 15/19/18
f 8/22/22 9/26/26 17/27/27 16/23/22
f 9/26/26 10/30/30 18/31/31 17/27/27
f 10/30/30 2/34/34 18/31/31
f 46/2/2 47/38/38 7/18/38 6/3/2
f 11/8/8 12/7/7 20/43/43 19/44/44
f 12/7/7 13/11/46 21/47/46 20/43/43
f 13/11/46 14/15/50 22/51/50 21/47/46
f 14/15/50 15/19/54 23/55/54 22/51/50
f 15/19/54 16/23/58 24/59/58 23/55/54
f 16/23/58 17/27/27 25/63/63 24/59/58
f 17/27/27 18/31/31 26/67/67 25/63/63
f 18/31/31 2/34/34 26/67/67
f 47/38/38 48/74/74 8/22/74 7/18/38
f 19/44/44 20/43/43 28/79/79 27/80/80
f 20/43/43 21/47/82 29/83/82 28/79/79
f 21/47/82 22/51/86 30/87/86 29/83/82
f 22/51/86 23/55/90 31/91/90 30/87/86
f 23/55/90 24/59/94 32/95/94 31/91/90
f 24/59/94 25/63/63 33/99/99 32/95/94
f 25/63/63 26/67/67 34/103/103 33/99/99
f 26/67/67 2/34/34 34/103/103
f 48/74/74 49/110/110 9/26/26 8/22/74
f 27/80/80 28/79/79 36/115/115 35/116/116
f 28/79/79 29/83/118 37/119/118 36/115/115
f 29/83/118 30/87/122 38/123/122 37/119/118
f 30/87/122 31/91/126 39/127/126 38/123/122
f 31/91/126 32/95/130 40/131/130 39/127/126
f 32/95/130 33/99/99 41/135/135 40/131/130
f 33/99/99 34/103/103 42/139/139 41/135/135
f 34/103/103 2/34/34 42/139/139
f 49/110/110 50/146/146 10/30/30 9/26/26
f 35/116/116 36/115/115 44/151/151 43/152/152
f 36/115/115 37/119/154 45/1/154 44/151/151
f 37/119/154 38/123/158 46/2/158 45/1/154
f 38/123/158 39/127/162 47/38/162 46/2/158
f 39/127/162 40/131/166 48/74/166 47/38/162
f 40/131/166 41/135/135 49/110/110 48/74/166
f 41/135/135 42/139/139 50/146/146 49/110/110
f 42/139/139 2/34/34 50/146/146
f 50/146/146 2/34/34 10/30/30
f 43/152/152 44/151/151 4/6/6 3/5/5
f 44/151/151 45/1/1 5/4/1 4/6/6

